<svg id="Capa_1" enable-background="new 0 0 497 497" height="512" viewBox="0 0 497 497" width="512" xmlns="http://www.w3.org/2000/svg"><g><path d="m329.879 380.2 28.121 53.22-109.5 15.814-109.543-15.734 28.423-53.3z" fill="#2b597f"/><path d="m497 47.5v298.42c0 22.09-17.91 40-40 40h-417c-22.09 0-40-17.91-40-40v-297.42c0-22.64 18.36-41 41-41h416c22.09 0 40 17.91 40 40z" fill="#50758d"/><path d="m55 385.92h-15c-22.09 0-40-17.91-40-40v-297.42c0-22.64 18.36-41 41-41h15c-22.64 0-41 18.36-41 41v297.42c0 22.09 17.91 40 40 40z" fill="#2b597f"/><path d="m446.5 355.92h-396c-11.046 0-20-8.954-20-20v-278c0-11.046 8.954-20 20-20h396c11.046 0 20 8.954 20 20v278c0 11.046-8.954 20-20 20z" fill="#f5f5f5"/><path d="m466.5 57.92v278c0 11.05-8.95 20-20 20h-396c-11.05 0-20-8.95-20-20v-278c0-11.05 8.95-20 20-20h396c11.05 0 20 8.95 20 20z" fill="#f5f5f5"/><path d="m392 475.5h-274c-11.598 0-21-9.402-21-21 0-11.598 9.402-21 21-21h274z" fill="#50758d"/><path d="m313.008 361.234h33.119v114.266h-33.119z" fill="#2b597f"/><path d="m142 475.5h-24c-11.6 0-21-9.4-21-21 0-5.8 2.35-11.05 6.15-14.85s9.05-6.15 14.85-6.15h24c-5.8 0-11.05 2.35-14.85 6.15s-6.15 9.05-6.15 14.85c0 11.6 9.4 21 21 21z" fill="#2b597f"/><g><path d="m391.5 213.016h-286c-11.046 0-20-8.954-20-20v-54c0-11.046 8.954-20 20-20h286c11.046 0 20 8.954 20 20v54c0 11.046-8.954 20-20 20z" fill="#2edffc"/><path d="m120.5 213.02h-15c-11.05 0-20-8.96-20-20v-54c0-11.05 8.95-20 20-20h15c-11.05 0-20 8.95-20 20v54c0 11.04 8.95 20 20 20z" fill="#27bdf3"/><g fill="#2b597f"><path d="m159.667 169.052-5.811-3.417 6.734-3.817c3.604-2.042 4.869-6.619 2.827-10.223-2.043-3.604-6.621-4.869-10.223-2.826l-6.828 3.87v-7.123c0-4.143-3.358-7.5-7.5-7.5s-7.5 3.357-7.5 7.5v6.895l-6.565-3.86c-3.569-2.099-8.167-.907-10.267 2.663-2.099 3.571-.907 8.168 2.664 10.267l6.661 3.916-5.852 3.317c-3.604 2.042-4.869 6.619-2.827 10.223 1.381 2.436 3.919 3.803 6.532 3.803 1.253 0 2.524-.314 3.691-.977l5.962-3.38v8.133c0 4.143 3.358 7.5 7.5 7.5s7.5-3.357 7.5-7.5v-7.886l5.699 3.351c1.194.702 2.502 1.036 3.794 1.036 2.571 0 5.075-1.323 6.472-3.699 2.101-3.571.908-8.168-2.663-10.266z"/><path d="m231.667 169.052-5.811-3.417 6.734-3.817c3.604-2.042 4.869-6.619 2.827-10.223-2.043-3.604-6.622-4.869-10.223-2.826l-6.828 3.87v-7.123c0-4.143-3.358-7.5-7.5-7.5s-7.5 3.357-7.5 7.5v6.895l-6.565-3.86c-3.57-2.099-8.167-.907-10.267 2.663-2.099 3.571-.907 8.168 2.664 10.267l6.661 3.916-5.852 3.317c-3.604 2.042-4.869 6.619-2.827 10.223 1.381 2.436 3.919 3.803 6.532 3.803 1.253 0 2.524-.314 3.691-.977l5.962-3.38v8.133c0 4.143 3.358 7.5 7.5 7.5s7.5-3.357 7.5-7.5v-7.886l5.699 3.351c1.194.702 2.502 1.036 3.794 1.036 2.571 0 5.075-1.323 6.472-3.699 2.101-3.571.908-8.168-2.663-10.266z"/><path d="m303.667 169.052-5.811-3.417 6.734-3.817c3.604-2.042 4.869-6.619 2.827-10.223s-6.621-4.869-10.223-2.826l-6.828 3.87v-7.123c0-4.143-3.358-7.5-7.5-7.5s-7.5 3.357-7.5 7.5v6.895l-6.565-3.86c-3.569-2.099-8.167-.907-10.267 2.663-2.099 3.571-.907 8.168 2.664 10.267l6.661 3.916-5.852 3.317c-3.604 2.042-4.869 6.619-2.827 10.223 1.381 2.436 3.919 3.803 6.532 3.803 1.253 0 2.524-.314 3.691-.977l5.962-3.38v8.133c0 4.143 3.358 7.5 7.5 7.5s7.5-3.357 7.5-7.5v-7.886l5.699 3.351c1.194.702 2.502 1.036 3.794 1.036 2.571 0 5.075-1.323 6.472-3.699 2.101-3.571.908-8.168-2.663-10.266z"/><path d="m373 193.517h-39c-4.142 0-7.5-3.357-7.5-7.5s3.358-7.5 7.5-7.5h39c4.142 0 7.5 3.357 7.5 7.5s-3.358 7.5-7.5 7.5z"/></g></g><path d="m459.26 318.81h-8.76v-20.31c0-14.64-5.93-27.88-15.52-37.48-5.942-5.936-13.28-10.464-21.48-13.057v-2.463h-16c-29.271 0-53 23.729-53 53v20.31h-1.5c-16.569 0-30 13.431-30 30v7.11h133.5c11.046 0 20-8.954 20-20v-15.81c-2.26-.84-4.7-1.3-7.24-1.3zm-84.76-20.31c0-12.977 10.808-23.481 23.893-22.983 12.444.474 22.107 11.096 22.107 23.549v19.744h-46z" fill="#e6e6e6"/><path d="m466.5 298.5v37.31l-15.77 10-14.23-10v-37.31c0-12.68-10.32-23-23-23s-23 10.32-23 23v37.31l-15.68 10-14.32-10v-37.31c0-29.27 23.73-53 53-53 14.64 0 27.88 5.93 37.48 15.52 9.59 9.6 15.52 22.84 15.52 37.48z" fill="#fad207"/><path d="m374.5 298.5v37.31l7.64 5.33-7.32 4.67-14.32-10v-37.31c0-29.27 23.73-53 53-53 2.37 0 4.71.16 7 .46-25.96 3.42-46 25.64-46 52.54z" fill="#faa515"/><path d="m458.09 341.14-7.36 4.67-14.23-10v-37.31c0-10.24-6.73-18.94-16-21.9 2.21-.72 4.56-1.1 7-1.1 12.68 0 23 10.32 23 23v37.31z" fill="#faa515"/><path d="m497 325.04v20.88c0 22.09-17.91 40-40 40l-132.053 3-11.947-3 .01-30h133.49c11.05 0 20-8.95 20-20v-17.11h9.76c7.65 0 14.78 2.29 20.74 6.23z" fill="#2b597f"/><path d="m313.008 385.92h33.119v47.58h-33.119z" fill="#225272"/><path clip-rule="evenodd" d="m497 356.55v112.21c0 11.45-9.29 20.74-20.74 20.74h-125.52c-11.45 0-20.74-9.29-20.74-20.74v-112.21c0-11.45 9.29-20.74 20.74-20.74h125.52c11.45 0 20.74 9.29 20.74 20.74z" fill="#faf063" fill-rule="evenodd"/><path d="m365.74 489.5h-15c-11.45 0-20.74-9.29-20.74-20.74v-112.21c0-11.45 9.29-20.74 20.74-20.74h15c-11.45 0-20.74 9.29-20.74 20.74v112.21c0 11.45 9.29 20.74 20.74 20.74z" fill="#fad207"/><path d="m432.5 402.5c0-10.493-8.507-19-19-19s-19 8.507-19 19c0 7.829 4.738 14.547 11.5 17.457v21.199c0 4.143 3.358 7.5 7.5 7.5s7.5-3.357 7.5-7.5v-21.199c6.762-2.91 11.5-9.628 11.5-17.457z" fill="#faa515"/></g></svg>